<?xml version="1.0" encoding="utf-8"?>
<!-- Generator: Adobe Illustrator 24.3.0, SVG Export Plug-In . SVG Version: 6.00 Build 0)  -->
<svg version="1.1" id="Layer_1" xmlns="http://www.w3.org/2000/svg" xmlns:xlink="http://www.w3.org/1999/xlink" x="0px" y="0px"
	 viewBox="0 0 133 46" style="enable-background:new 0 0 133 46;" xml:space="preserve">
<style type="text/css">
	.st0{fill:#FFD809;}
	.st1{fill:#192330;}
</style>
<g>
	<g>
		<g>
			<path class="st0" d="M32.5,27.4c0,0,0.5,0.6-0.1,1.7c-0.2,0.3-0.5,0.7-0.8,1.3c0.3,0.5,0.7,1.1,1,1.6c0.5-0.9,0.9-1.6,1.1-2.1
				c0.6-1.1,1.4-0.9,1.4-0.9l0,0c1.5,0.1,3.2-0.8,4.4-3c0.7-1.2,2-4.1,3.2-7.2c0.1-0.2,0-0.5-0.2-0.6h0c-0.2-0.1-0.5,0-0.6,0.2
				l-3.3,6.4c-0.2,0.4-0.7,0.6-1,0.4c-0.2-0.1-0.2-0.4-0.1-0.6l3.7-6.7c0.1-0.2,0-0.5-0.2-0.6l-0.1,0c-0.2-0.1-0.5-0.1-0.6,0.2
				l-3.8,6.6c-0.1,0.3-0.4,0.4-0.6,0.3l0,0l0,0c-0.2-0.1-0.2-0.4-0.1-0.7l3.8-6.6c0.1-0.2,0.1-0.5-0.2-0.6l-0.1,0
				c-0.2-0.1-0.5-0.1-0.6,0.2l-4,6.5c-0.1,0.2-0.4,0.4-0.6,0.2c-0.3-0.2-0.4-0.7-0.1-1.1l3.9-6.1c0.1-0.2,0.1-0.5-0.2-0.6l0,0
				c-0.2-0.1-0.4-0.1-0.6,0.1c-2.1,2.6-3.9,5.2-4.6,6.4C31.6,24.3,31.7,26.2,32.5,27.4L32.5,27.4z"/>
			<path class="st0" d="M28.3,37.3c-0.2-0.3-0.3-0.7-0.5-1c-1.4,2-2.3,3.1-3.7,4.5c-1.6,1.6-1.5,3.5-0.1,4.3
				c1.4,0.8,3.1-0.1,3.7-2.2c0.4-1.4,0.7-2.5,1.3-3.9C28.9,38.5,28.7,37.9,28.3,37.3z"/>
		</g>
		<path class="st0" d="M36.6,40.8C35,39.3,34,38,32.2,35.3c-1.8-2.7-3.4-5.4-4-6.4c-0.6-1.1,0.1-2.1,0.1-2.1l0,0
			c1.1-1.4,1.3-3.5,0.1-5.6c-1.7-2.9-5.6-5.4-7.9-4.1c-2.3,1.3-2.1,6-0.4,8.9c1.2,2.2,3.1,3,4.9,2.7l0,0c0,0,1.3-0.1,1.9,1
			c0.6,1.1,2.1,3.8,3.6,6.7c1.5,2.9,2,4.4,2.6,6.6c0.6,2.1,2.3,3,3.7,2.2C38,44.3,38.1,42.4,36.6,40.8z"/>
	</g>
</g>
<g>
	<g>
		<g>
			<path class="st1" d="M64.9,36.5c-0.2,0-0.4-0.1-0.5-0.2c-0.1-0.1-0.2-0.3-0.2-0.5V11.8c0-0.2,0.1-0.4,0.2-0.5
				c0.1-0.1,0.3-0.2,0.5-0.2h13.7c0.2,0,0.4,0.1,0.5,0.2c0.1,0.1,0.2,0.3,0.2,0.5c0,0.2-0.1,0.4-0.2,0.5c-0.1,0.1-0.3,0.2-0.5,0.2
				h-13l0.1-0.1v10.4l-0.1-0.3h11.4c0.2,0,0.4,0.1,0.5,0.2s0.2,0.3,0.2,0.5c0,0.2-0.1,0.4-0.2,0.5S77.1,24,76.9,24H65.4l0.2-0.3v12
				c0,0.2-0.1,0.4-0.2,0.5C65.3,36.4,65.1,36.5,64.9,36.5z"/>
			<path class="st0" d="M82.1,36.5c-0.3,0-0.6-0.1-0.7-0.3c-0.2-0.2-0.3-0.5-0.3-0.8v-0.8c0-0.3,0.1-0.6,0.3-0.8
				c0.2-0.2,0.4-0.3,0.7-0.3h0.1c0.3,0,0.6,0.1,0.7,0.3c0.2,0.2,0.2,0.5,0.2,0.8v0.8c0,0.3-0.1,0.6-0.2,0.8
				c-0.2,0.2-0.4,0.3-0.7,0.3H82.1z"/>
			<path class="st0" d="M87.6,36.5c-0.2,0-0.4-0.1-0.6-0.2c-0.1-0.1-0.2-0.3-0.2-0.5V11.8c0-0.2,0.1-0.4,0.2-0.5
				c0.1-0.1,0.3-0.2,0.5-0.2h9.6c1.4,0,2.7,0.3,3.8,0.9c1.1,0.6,1.9,1.3,2.5,2.3c0.6,1,0.9,2.1,0.9,3.4c0,1.1-0.2,2.1-0.6,3
				c-0.4,0.9-1,1.6-1.7,2.2c-0.7,0.6-1.5,1-2.4,1.3l-1.7-0.3c1,0,1.9,0.2,2.8,0.7c0.9,0.5,1.6,1.2,2.1,2.2s0.8,2.1,0.8,3.5
				c0,1.2,0.1,2.1,0.2,2.7c0.1,0.6,0.3,1.1,0.4,1.4c0.2,0.3,0.4,0.5,0.6,0.7c0.1,0.1,0.3,0.2,0.3,0.4c0.1,0.1,0.1,0.3,0,0.5
				c0,0.1-0.1,0.3-0.2,0.3c-0.1,0.1-0.2,0.1-0.3,0.2c-0.1,0-0.3,0-0.4-0.1c-0.3-0.2-0.7-0.5-1-0.9c-0.3-0.4-0.6-1-0.8-1.8
				c-0.2-0.8-0.3-1.9-0.3-3.4c0-1.1-0.2-2-0.5-2.7c-0.3-0.7-0.8-1.2-1.3-1.6c-0.5-0.4-1.1-0.6-1.7-0.7c-0.6-0.1-1.2-0.2-1.7-0.2H88
				l0.3-0.4v11c0,0.2-0.1,0.4-0.2,0.5C88,36.4,87.8,36.5,87.6,36.5z M88,23.7h9.3c1-0.1,1.9-0.4,2.7-0.9c0.8-0.5,1.5-1.2,2-2
				c0.5-0.9,0.8-1.9,0.8-3.1c0-1.5-0.5-2.7-1.6-3.7c-1-1-2.5-1.5-4.3-1.5h-8.8l0.2-0.3v11.8L88,23.7z"/>
			<path class="st0" d="M108.2,36.5c-0.3,0-0.6-0.1-0.7-0.3c-0.2-0.2-0.3-0.5-0.3-0.8v-0.8c0-0.3,0.1-0.6,0.3-0.8
				c0.2-0.2,0.4-0.3,0.7-0.3h0.1c0.3,0,0.6,0.1,0.7,0.3c0.2,0.2,0.2,0.5,0.2,0.8v0.8c0,0.3-0.1,0.6-0.2,0.8
				c-0.2,0.2-0.4,0.3-0.7,0.3H108.2z"/>
			<path class="st1" d="M119.6,36.8c-1.9,0-3.5-0.3-4.9-0.9c-1.4-0.7-2.7-1.6-3.9-2.9c0,0-0.1-0.1-0.1-0.2c0-0.1-0.1-0.2-0.1-0.3
				c0-0.2,0.1-0.4,0.3-0.6c0.2-0.2,0.3-0.3,0.5-0.3c0.2,0,0.4,0.1,0.6,0.3c1,1.1,2.1,2,3.4,2.5c1.3,0.6,2.6,0.9,4,0.9
				c1.2,0,2.3-0.2,3.3-0.6c1-0.4,1.7-1,2.3-1.7c0.6-0.7,0.8-1.6,0.8-2.6c0-1.2-0.4-2.2-1-3c-0.7-0.7-1.5-1.4-2.5-1.8
				c-1-0.5-2.1-0.9-3.2-1.3c-0.9-0.3-1.8-0.7-2.6-1s-1.7-0.8-2.4-1.3c-0.7-0.5-1.3-1.2-1.7-2c-0.4-0.8-0.6-1.8-0.6-2.9
				c0-1.2,0.3-2.3,1-3.2c0.6-1,1.6-1.7,2.8-2.3s2.6-0.9,4.3-0.9c1.4,0,2.7,0.2,4,0.7c1.3,0.5,2.3,1.2,3.1,2.2
				c0.2,0.3,0.4,0.6,0.4,0.8c0,0.2-0.1,0.3-0.3,0.5c-0.2,0.2-0.4,0.3-0.6,0.3c-0.2,0-0.3-0.1-0.5-0.2c-0.4-0.6-1-1.1-1.6-1.5
				c-0.6-0.4-1.3-0.7-2.1-1c-0.8-0.2-1.6-0.3-2.5-0.3c-1.2,0-2.3,0.2-3.2,0.6c-1,0.4-1.7,0.9-2.3,1.6s-0.9,1.6-0.9,2.6
				c0,1.1,0.3,2,1,2.7c0.6,0.7,1.5,1.3,2.4,1.8c1,0.5,2,0.9,3,1.3c0.9,0.3,1.8,0.7,2.7,1c0.9,0.4,1.7,0.8,2.5,1.4s1.3,1.3,1.8,2.1
				c0.4,0.8,0.7,1.9,0.7,3.2c0,1.1-0.3,2.1-1,3.1c-0.6,0.9-1.5,1.7-2.7,2.3C122.6,36.5,121.2,36.8,119.6,36.8z"/>
		</g>
	</g>
</g>
<path class="st1" d="M45,10.2c-0.9,0-1.7,0.2-2.5,0.4c-1-4.9-5.4-8.5-10.5-8.5c-5.1,0-9.5,3.7-10.5,8.6c-1-0.3-2-0.5-3.1-0.5
	c-5.1,0-9.3,4.2-9.3,9.3c0,5.1,4.1,9.2,9.1,9.3l1.3,10.8h3c0.3,0,0.6-0.1,0.8-0.4c0,0,0,0,0,0c0.5-0.7,0-1.6-0.8-1.6h-1.2l-1.3-10.9
	l-1,0.1c-0.2,0-0.4,0-0.6,0c-4,0-7.2-3.3-7.2-7.2c0-4,3.3-7.2,7.2-7.2c1.2,0,2.4,0.3,3.4,0.9l1.4,0.8l0.1-1.6
	c0.3-4.5,4.1-8.1,8.6-8.1c4.5,0,8.3,3.5,8.6,8l0.1,1.5l1.3-0.7c0.3-0.2,0.7-0.3,1-0.4c4.4-1.4,8.8,1.6,9.4,5.9
	c0.6,4.7-3.2,8.6-7.8,8.2l-1-0.1l-1.3,10.9h-1.2c-0.8,0-1.3,1-0.8,1.6c0,0,0,0,0,0c0.2,0.3,0.5,0.4,0.8,0.4h3l1.3-10.8
	c5.5-0.1,9.9-5.1,9-10.8C53.8,13.4,49.7,10,45,10.2z"/>
</svg>
