<?xml version="1.0" encoding="utf-8"?>
<!-- Generator: Adobe Illustrator 24.3.0, SVG Export Plug-In . SVG Version: 6.00 Build 0)  -->
<svg version="1.1" id="Layer_1" xmlns="http://www.w3.org/2000/svg" xmlns:xlink="http://www.w3.org/1999/xlink" x="0px" y="0px"
	 viewBox="0 0 133 46" style="enable-background:new 0 0 133 46;" xml:space="preserve">
<style type="text/css">
	.st0{fill:#192330;}
	.st1{fill:#FFD809;}
	.st2{display:none;fill:#FFD809;}
</style>
<g>
	<g>
		<g>
			<g>
				<path class="st0" d="M71.5,33.1c-0.2,0-0.3-0.1-0.5-0.2s-0.2-0.3-0.2-0.4V11.7c0-0.2,0.1-0.3,0.2-0.4c0.1-0.1,0.3-0.2,0.4-0.2
					h11.9c0.2,0,0.3,0.1,0.4,0.2s0.2,0.3,0.2,0.4c0,0.2-0.1,0.3-0.2,0.5s-0.3,0.2-0.4,0.2H72.1l0.1-0.1v9.1L72,21H82
					c0.2,0,0.3,0.1,0.4,0.2c0.1,0.1,0.2,0.3,0.2,0.4c0,0.2-0.1,0.3-0.2,0.5c-0.1,0.1-0.3,0.2-0.4,0.2H72l0.2-0.3v10.4
					c0,0.2-0.1,0.3-0.2,0.4S71.7,33.1,71.5,33.1z"/>
				<path class="st1" d="M87.8,33.1c-0.2,0-0.4-0.1-0.5-0.2s-0.2-0.3-0.2-0.4V11.7c0-0.2,0.1-0.3,0.2-0.4c0.1-0.1,0.3-0.2,0.4-0.2
					h8.3c1.2,0,2.3,0.2,3.3,0.7c0.9,0.5,1.7,1.2,2.2,2c0.5,0.9,0.8,1.8,0.8,2.9c0,1-0.2,1.8-0.5,2.6c-0.3,0.8-0.8,1.4-1.4,1.9
					c-0.6,0.5-1.3,0.9-2.1,1.1l-1.4-0.3c0.8,0,1.6,0.2,2.4,0.6c0.8,0.4,1.4,1.1,1.9,1.9c0.5,0.8,0.7,1.8,0.7,3c0,1,0,1.8,0.1,2.3
					c0.1,0.5,0.2,0.9,0.4,1.2c0.2,0.3,0.3,0.5,0.6,0.6c0.1,0.1,0.2,0.2,0.3,0.3c0.1,0.1,0.1,0.3,0,0.4c0,0.1-0.1,0.2-0.2,0.3
					c-0.1,0.1-0.2,0.1-0.3,0.1s-0.2,0-0.3-0.1c-0.3-0.2-0.6-0.4-0.9-0.8c-0.3-0.3-0.5-0.8-0.7-1.5c-0.2-0.7-0.3-1.7-0.3-3
					c0-1-0.2-1.8-0.5-2.4s-0.7-1-1.2-1.4c-0.5-0.3-1-0.5-1.5-0.6c-0.5-0.1-1-0.2-1.5-0.2h-7.6l0.3-0.4v9.6c0,0.2-0.1,0.3-0.2,0.4
					S88,33.1,87.8,33.1z M88.2,21.9h8.1c0.8-0.1,1.6-0.3,2.3-0.8c0.7-0.4,1.3-1,1.7-1.8c0.5-0.8,0.7-1.6,0.7-2.7
					c0-1.3-0.5-2.3-1.4-3.2s-2.1-1.3-3.7-1.3h-7.6l0.2-0.2v10.2L88.2,21.9z"/>
				<path class="st0" d="M112.3,33.4c-1.6,0-3-0.3-4.2-0.8c-1.2-0.6-2.3-1.4-3.4-2.5c0,0-0.1-0.1-0.1-0.2s-0.1-0.2-0.1-0.3
					c0-0.2,0.1-0.3,0.2-0.5c0.1-0.2,0.3-0.2,0.5-0.2c0.2,0,0.4,0.1,0.5,0.3c0.8,1,1.8,1.7,2.9,2.2c1.1,0.5,2.3,0.8,3.5,0.8
					c1.1,0,2-0.2,2.9-0.5c0.8-0.3,1.5-0.8,2-1.5c0.5-0.6,0.7-1.4,0.7-2.2c0-1.1-0.3-1.9-0.9-2.6c-0.6-0.6-1.3-1.2-2.2-1.6
					c-0.9-0.4-1.8-0.8-2.8-1.2c-0.8-0.3-1.5-0.6-2.3-0.9c-0.8-0.3-1.4-0.7-2-1.1c-0.6-0.5-1.1-1-1.4-1.7c-0.4-0.7-0.5-1.5-0.5-2.5
					c0-1,0.3-2,0.8-2.8c0.6-0.8,1.4-1.5,2.4-2c1-0.5,2.3-0.7,3.7-0.7c1.2,0,2.4,0.2,3.5,0.6s2,1.1,2.7,1.9c0.2,0.3,0.3,0.5,0.3,0.7
					c0,0.1-0.1,0.3-0.2,0.4c-0.2,0.1-0.3,0.2-0.5,0.2c-0.2,0-0.3-0.1-0.4-0.2c-0.4-0.5-0.8-0.9-1.4-1.3c-0.5-0.4-1.1-0.7-1.8-0.8
					c-0.7-0.2-1.4-0.3-2.1-0.3c-1,0-2,0.2-2.8,0.5c-0.8,0.3-1.5,0.8-2,1.4c-0.5,0.6-0.8,1.4-0.8,2.3c0,1,0.3,1.8,0.8,2.4
					c0.6,0.6,1.3,1.1,2.1,1.5s1.7,0.8,2.6,1.1c0.8,0.3,1.6,0.6,2.4,0.9c0.8,0.3,1.5,0.7,2.1,1.2s1.1,1.1,1.5,1.8
					c0.4,0.7,0.6,1.7,0.6,2.8c0,1-0.3,1.9-0.8,2.7c-0.6,0.8-1.3,1.5-2.3,2C114.9,33.1,113.7,33.3,112.3,33.4z"/>
			</g>
		</g>
	</g>
	<g>
		<g>
			<g>
				<g>
					<path class="st1" d="M40,27.3c0,0,0.5,0.6-0.1,1.7c-0.2,0.3-0.4,0.7-0.8,1.3c0.3,0.5,0.6,1,1,1.6c0.5-0.9,0.9-1.6,1.1-2.1
						c0.6-1.1,1.4-0.9,1.4-0.9l0,0c1.5,0.1,3.2-0.8,4.4-2.9c0.7-1.2,2-4,3.2-7.1c0.1-0.2,0-0.4-0.2-0.6h0c-0.2-0.1-0.5,0-0.6,0.2
						l-3.2,6.4c-0.2,0.4-0.7,0.6-1,0.4c-0.2-0.1-0.2-0.4-0.1-0.6l3.6-6.6c0.1-0.2,0-0.5-0.2-0.6l-0.1,0c-0.2-0.1-0.5-0.1-0.6,0.2
						l-3.7,6.5c-0.1,0.3-0.4,0.4-0.6,0.3l0,0l0,0c-0.2-0.1-0.2-0.4-0.1-0.7l3.8-6.5c0.1-0.2,0.1-0.5-0.2-0.6l-0.1,0
						c-0.2-0.1-0.5-0.1-0.6,0.2l-3.9,6.4c-0.1,0.2-0.4,0.3-0.6,0.2c-0.3-0.2-0.4-0.7-0.1-1.1l3.9-6c0.1-0.2,0.1-0.5-0.2-0.6l0,0
						c-0.2-0.1-0.4-0.1-0.6,0.1c-2,2.6-3.9,5.2-4.5,6.3C39.1,24.2,39.1,26,40,27.3L40,27.3z"/>
					<path class="st1" d="M35.8,37.1c-0.2-0.3-0.3-0.6-0.5-1c-1.4,2-2.3,3.1-3.6,4.4c-1.6,1.5-1.5,3.4-0.1,4.3
						c1.4,0.8,3.1-0.1,3.7-2.2c0.4-1.4,0.7-2.5,1.3-3.8C36.4,38.2,36.2,37.7,35.8,37.1z"/>
				</g>
				<path class="st1" d="M43.9,40.5c-1.6-1.5-2.6-2.8-4.3-5.5c-1.8-2.7-3.3-5.3-4-6.4c-0.6-1.1,0.1-2.1,0.1-2.1l0,0
					c1.1-1.4,1.3-3.4,0.1-5.5c-1.7-2.9-5.6-5.4-7.8-4.1c-2.3,1.3-2.1,5.9-0.4,8.8c1.2,2.1,3.1,3,4.8,2.7l0,0c0,0,1.3-0.1,1.9,1
					c0.6,1.1,2.1,3.7,3.5,6.6c1.4,2.9,2,4.4,2.6,6.5c0.5,2.1,2.3,3,3.7,2.2C45.4,44,45.5,42,43.9,40.5z"/>
			</g>
		</g>
		<path class="st0" d="M51.6,9.4c-0.9,0-1.8,0.2-2.6,0.5c-1.1-5.1-5.7-8.9-11-8.9c-5.4,0-10,3.8-11,9c-1-0.4-2.1-0.5-3.2-0.5
			c-5.4,0-9.8,4.4-9.8,9.8c0,5.3,4.3,9.7,9.6,9.8l1.4,11.4h3.2c0.3,0,0.7-0.2,0.9-0.4c0,0,0,0,0,0c0.5-0.7,0-1.7-0.9-1.7h-1.3
			l-1.4-11.5l-1,0.1c-0.2,0-0.5,0-0.7,0c-4.2,0-7.6-3.4-7.6-7.6c0-4.2,3.4-7.6,7.6-7.6c1.3,0,2.5,0.3,3.6,0.9l1.5,0.8l0.1-1.7
			c0.3-4.8,4.3-8.5,9.1-8.5c4.7,0,8.7,3.7,9.1,8.4l0.1,1.6l1.4-0.7c0.4-0.2,0.7-0.3,1.1-0.5c4.7-1.5,9.3,1.7,9.9,6.2
			c0.6,4.9-3.4,9-8.2,8.6l-1-0.1l-1.4,11.5h-1.3c-0.9,0-1.4,1-0.9,1.7c0,0,0,0,0,0c0.2,0.3,0.5,0.4,0.9,0.4h3.2l1.4-11.4
			c5.8-0.1,10.4-5.3,9.5-11.4C60.9,12.7,56.5,9.2,51.6,9.4z"/>
	</g>
</g>
<rect x="73.4" y="22.8" class="st2" width="1" height="1"/>
<rect x="95.1" y="22.6" class="st2" width="1" height="1"/>
</svg>
