<?xml version="1.0" encoding="utf-8"?>
<!-- Generator: Adobe Illustrator 24.3.0, SVG Export Plug-In . SVG Version: 6.00 Build 0)  -->
<svg version="1.1" id="Layer_1" xmlns="http://www.w3.org/2000/svg" xmlns:xlink="http://www.w3.org/1999/xlink" x="0px" y="0px"
	 viewBox="0 0 135 35" style="enable-background:new 0 0 135 35;" xml:space="preserve">
<style type="text/css">
	.st0{fill:#FFFFFF;}
	.st1{enable-background:new    ;}
</style>
<g>
	<path class="st0" d="M5.5,25.9l1.2,1.4C5.9,26.7,5,25.9,4.1,25C1.6,22.3,0,18.6,0,14.5C0,10,2,5.9,5.2,3.1L3.5,19.3
		c0,0.5-0.1,0.9,0,1.4C3.6,22.6,4.3,24.4,5.5,25.9z"/>
	<path class="st0" d="M23.4,24.5l-3.9,4.6c-0.6,0.7-3.4,4.3-4.2,5.9l0,0c-0.7-1.5-3.6-5.2-4.2-5.9l-3.9-4.6
		c-0.9-1.1-1.5-2.5-1.6-3.9c0-0.3,0-0.7,0-1L7.3,3.1C7.4,2.5,7.9,2,8.5,2l0,0l0,0c0.6,0,1.1,0.5,1.1,1.1v15.1c0,0.1,0,0.2,0,0.2
		c0.1,0.5,0.5,0.8,1,0.8c0.6,0,1-0.5,1-1V1.3c0-0.4,0.1-0.7,0.4-0.9C12.3,0.1,12.6,0,13,0c0.7,0,1.3,0.6,1.3,1.3v16.9
		c0,0.6,0.5,1,1,1l0,0c0.6,0,1-0.5,1-1V1.4c0-0.8,0.6-1.4,1.4-1.4l0,0l0,0c0.3,0,0.7,0.1,0.9,0.4C18.9,0.6,19,1,19,1.3v16.2v0.6
		c0,0.6,0.5,1,1,1l0,0c0.6,0,1-0.5,1-1V18V3.1c0-0.3,0.1-0.6,0.3-0.8C21.6,2.2,21.9,2,22.2,2c0.5,0,0.9,0.4,1,0.9L25,19.6
		c0,0.1,0,0.1,0,0.2C25.1,21.5,24.5,23.2,23.4,24.5z"/>
	<path class="st0" d="M30.5,14.5c0,4.1-1.6,7.7-4.1,10.5c-0.9,0.9-1.7,1.6-2.5,2.2l1.1-1.3c1.5-1.7,2.2-3.9,2.1-6.1
		c0-0.2,0-0.3,0-0.4L25.4,3.1C28.6,5.9,30.5,10,30.5,14.5z"/>
</g>
<g class="st1">
	<path class="st0" d="M36.9,29V6h17.9v2.7H40.4v7.1h12.5v2.7H40.4V29H36.9z"/>
	<path class="st0" d="M54.8,29v-3.2h3.7V29H54.8z"/>
	<path class="st0" d="M63.6,29V6h11.8c2.4,0,4.2,0.2,5.4,0.6C82,7,83,7.7,83.7,8.8c0.7,1,1.1,2.2,1.1,3.5c0,1.6-0.6,3-1.8,4.1
		c-1.2,1.1-3.1,1.8-5.7,2.1c0.9,0.4,1.6,0.8,2.1,1.1c1,0.8,2,1.8,2.9,3.1L87,29h-4.4l-3.5-4.8c-1-1.4-1.9-2.4-2.5-3.2
		c-0.7-0.7-1.3-1.2-1.8-1.5c-0.5-0.3-1.1-0.5-1.6-0.6c-0.4-0.1-1.1-0.1-2-0.1h-4.1V29H63.6z M67.1,16.1h7.6c1.6,0,2.9-0.1,3.8-0.4
		c0.9-0.3,1.6-0.7,2.1-1.4c0.5-0.6,0.7-1.3,0.7-2.1c0-1.1-0.5-2-1.4-2.7c-0.9-0.7-2.4-1.1-4.3-1.1h-8.4V16.1z"/>
	<path class="st0" d="M89.9,29v-3.2h3.7V29H89.9z"/>
	<path class="st0" d="M97.5,21.6l3.3-0.3c0.2,1.2,0.5,2.1,1.1,2.8c0.6,0.7,1.5,1.3,2.7,1.8c1.2,0.5,2.6,0.7,4.1,0.7
		c1.3,0,2.5-0.2,3.6-0.5s1.8-0.8,2.3-1.4s0.8-1.3,0.8-2c0-0.7-0.2-1.4-0.7-1.9c-0.5-0.5-1.3-1-2.4-1.4c-0.7-0.2-2.3-0.6-4.7-1.1
		c-2.4-0.5-4.2-1-5.1-1.4c-1.3-0.6-2.2-1.3-2.8-2.1c-0.6-0.9-0.9-1.8-0.9-2.9c0-1.2,0.4-2.3,1.1-3.3c0.8-1,1.9-1.8,3.3-2.3
		c1.5-0.5,3.1-0.8,4.9-0.8c2,0,3.7,0.3,5.2,0.8c1.5,0.6,2.7,1.4,3.5,2.4c0.8,1.1,1.2,2.3,1.3,3.6l-3.4,0.2c-0.2-1.5-0.8-2.6-1.8-3.3
		S110,8.3,108,8.3c-2.1,0-3.7,0.3-4.7,1c-1,0.7-1.5,1.5-1.5,2.4c0,0.8,0.3,1.5,1,2c0.7,0.5,2.4,1.1,5.3,1.6c2.9,0.6,4.8,1.1,5.9,1.5
		c1.5,0.6,2.7,1.4,3.4,2.4c0.7,0.9,1.1,2,1.1,3.3c0,1.2-0.4,2.4-1.2,3.5c-0.8,1.1-2,1.9-3.5,2.5c-1.5,0.6-3.2,0.9-5.1,0.9
		c-2.4,0-4.4-0.3-6-0.9c-1.6-0.6-2.9-1.5-3.8-2.7S97.5,23.2,97.5,21.6z"/>
</g>
</svg>
