<?xml version="1.0" encoding="utf-8"?>
<!-- Generator: Adobe Illustrator 24.3.0, SVG Export Plug-In . SVG Version: 6.00 Build 0)  -->
<svg version="1.1" id="Layer_1" xmlns="http://www.w3.org/2000/svg" xmlns:xlink="http://www.w3.org/1999/xlink" x="0px" y="0px"
	 viewBox="0 0 135 35" style="enable-background:new 0 0 135 35;" xml:space="preserve">
<style type="text/css">
	.st0{fill:#333333;}
	.st1{font-family:'Helvetica';}
	.st2{font-size:29.9065px;}
	.st3{letter-spacing:-1;}
	.st4{font-size:20px;}
	.st5{font-size:24px;}
</style>
<g>
	<g>
		<path class="st0" d="M5.5,25.9l1.2,1.4C5.9,26.7,5,25.9,4.1,25C1.6,22.3,0,18.6,0,14.5C0,10,2,5.9,5.2,3.1L3.5,19.3
			c0,0.5-0.1,0.9,0,1.4C3.6,22.6,4.3,24.4,5.5,25.9z"/>
		<path class="st0" d="M23.4,24.5l-3.9,4.6c-0.6,0.7-3.4,4.3-4.2,5.9l0,0c-0.7-1.5-3.6-5.2-4.2-5.9l-3.9-4.6
			c-0.9-1.1-1.5-2.5-1.6-3.9c0-0.3,0-0.7,0-1L7.3,3.1C7.4,2.5,7.9,2,8.5,2l0,0l0,0c0.6,0,1.1,0.5,1.1,1.1v15.1c0,0.1,0,0.2,0,0.2
			c0.1,0.5,0.5,0.8,1,0.8c0.6,0,1-0.5,1-1V1.3c0-0.4,0.1-0.7,0.4-0.9C12.3,0.1,12.6,0,13,0c0.7,0,1.3,0.6,1.3,1.3v16.9
			c0,0.6,0.5,1,1,1l0,0c0.6,0,1-0.5,1-1V1.4c0-0.8,0.6-1.4,1.4-1.4l0,0l0,0c0.3,0,0.7,0.1,0.9,0.4C18.9,0.6,19,1,19,1.3v16.2v0.6
			c0,0.6,0.5,1,1,1l0,0c0.6,0,1-0.5,1-1V18V3.1c0-0.3,0.1-0.6,0.3-0.8C21.6,2.2,21.9,2,22.2,2c0.5,0,0.9,0.4,1,0.9L25,19.6
			c0,0.1,0,0.1,0,0.2C25.1,21.5,24.5,23.2,23.4,24.5z"/>
		<path class="st0" d="M30.5,14.5c0,4.1-1.6,7.7-4.1,10.5c-0.9,0.9-1.7,1.6-2.5,2.2l1.1-1.3c1.5-1.7,2.2-3.9,2.1-6.1
			c0-0.2,0-0.3,0-0.4L25.4,3.1C28.6,5.9,30.5,10,30.5,14.5z"/>
	</g>
</g>
<g>
	<text transform="matrix(0.9995 0 0 1 42.8457 27.6792)"><tspan x="0" y="0" class="st0 st1 st2 st3">F</tspan><tspan x="16.8" y="0" class="st0 st1 st4"> </tspan><tspan x="21.3" y="0" class="st0 st1 st2 st3">.</tspan><tspan x="28.1" y="0" class="st0 st1 st5 st3"> </tspan><tspan x="33.6" y="0" class="st0 st1 st2 st3">R</tspan><tspan x="53.7" y="0" class="st0 st1 st5 st3"> </tspan><tspan x="59.2" y="0" class="st0 st1 st2 st3">. </tspan><tspan x="72.8" y="0" class="st0 st1 st2 st3">S</tspan></text>
</g>
</svg>
